<?xml version="1.0" encoding="iso-8859-1"?>
<!-- Generator: Adobe Illustrator 21.1.0, SVG Export Plug-In . SVG Version: 6.00 Build 0)  -->
<svg version="1.1" id="Layer_1" xmlns="http://www.w3.org/2000/svg" xmlns:xlink="http://www.w3.org/1999/xlink" x="0px" y="0px"
	 viewBox="0 0 809 352" style="enable-background:new 0 0 809 352;" xml:space="preserve">
	 <style type="text/css">
 	.logo-animations, .fun-animation{
 		-webkit-transition:All .5s ease;
 		-moz-transition:All .5s ease;
 		-o-transition:All .5s ease;
 	 }

 	 .logo-green-letters {
 	 transform:translate(0,0);
 	 -webkit-transform:translate(0,0);
 	 -moz-transform: translate(0,0);
 	 }
 	 svg:hover .logo-green-letters {
 	 transform:translate(3%);
 	 -webkit-transform:translate(-3%);
 	 -moz-transform: translate(-3%);
 	 }
 	 .logo-blue-letters {
 	 transform:translate(0,0);
 	 -webkit-transform:translate(0,0);
 	 -moz-transform: translate(0,0);
 	 }
 	 svg:hover .logo-blue-letters {
 	 transform:translate(3%);
 	 -webkit-transform:translate(3%);
 	 -moz-transform: translate(3%);
 	 }
 	 .logo-pink-letters{
 	 transform:rotate(0deg);
 	 transform-origin:0;

 	 }
 	 svg:hover .logo-pink-letters{
 	 transform: rotate(-20deg);
 	 transform-origin:40%;
 	 }

 </style>
<g class="logo-green-letters logo-animations">
	<g>
		<path style="fill-rule:evenodd;clip-rule:evenodd;fill:#78B73F;" d="M570.689,230.639c-1.216-0.069-2.402-0.196-3.553-0.378
			l-2.633-0.417l-1.49,2.212c-6.642,9.867-18.656,10.336-24.06,9.807l-0.389-0.016c-7.626,0.109-30.965,0.407-35.448,0.164
			c-24.115-1.304-27.133-20.926-26.687-28.473c0,0,4.198-161.753,4.21-165.747c0.072-22.182,18.896-27.641,26.235-27.618
			c2.378-0.018,29.107-0.219,33.84,0.191c9.09,0.787,15.26,5.492,18.951,9.701c1.943,2.215,3.3,4.401,4.168,6.025
			c0.805,1.51,1.192,2.562,1.192,2.562l1.449,3.657c0.616,1.805,5.55,16.3,12.55,36.942l4.698,13.855l3.334-14.245
			c3.4-14.533,5.899-26.47,6.212-28.998c2.695-21.879,21.215-25.202,29.756-24.208c0,0,23.788,2.51,28.46,3.553
			c5.511,1.231,23.517,7.777,22.616,25.942l0.004,0.39c0.298,4.754,1.196,17.659,3.406,40.633
			c1.451,15.092,5.339,42.878,8.828,67.235c1.775,12.386,3.451,23.899,4.673,32.491c0.625,4.395,1.134,8.044,1.479,10.682
			c0.553,4.217,0.75,7.582,0.645,9.155c-1.727,26.287-20.287,26.256-29.445,24.214l-0.436-0.097l-0.447-0.003
			c-7.674-0.048-23.052-0.182-27.765-0.467c-9.489-0.572-16.429-4.352-20.922-9.459l-1.675-1.904l-2.463,0.606
			c-3.021,0.743-5.876,0.911-7.903,0.883C596.337,229.817,575.271,230.9,570.689,230.639z"/>
	</g>
	<g>
		<path style="fill-rule:evenodd;clip-rule:evenodd;fill:#78B73F;" d="M770.173,122.824l-0.26,2.047l1.467,1.452
			c7.815,7.737,10.782,18.233,11.573,22.379c1.342,7.037,3.087,26.331-11.087,38.3c-1.945,1.453-8.634,5.767-11.248,7.447
			l-86.089-1.512c-4.023-0.013-24.386-3.178-24.315-24.992c0.004-1.186,2.414-112.972,2.563-119.876
			c0.267-1.372,1.646-7.612,5.478-13.551c3.921-6.076,10.326-11.734,20.739-11.7c2.564,0.008,76.794-1.072,83.587-1.171l2.746,0.619
			c16.408,3.702,19.278,19.221,19.257,25.72c-0.007,2.125-1.23,31.869-1.53,39.135c-1.854,1.891-5.574,5.594-8.001,7.427
			c-0.694,0.523-1.476,1.089-2.341,1.671l-2.064,1.391l0.239,2.48c0.327,3.375,0.392,7.122,0.262,10.884
			C771.007,115.076,770.635,119.192,770.173,122.824z"/>
	</g>
	<g>
		<path style="fill-rule:evenodd;clip-rule:evenodd;fill:#FFFFFF;" d="M662.587,48.752c0.009-5.109,2.713-16.221,16.375-16.177
			c2.693,0.009,82.603-1.155,82.603-1.155l1.614,0.364c9.52,2.148,11.662,11.18,11.646,16.171c-0.008,2.395-1.37,35.117-1.37,35.117
			s-6.564,6.776-14.578,9.188c4.479,7.416,2.134,29.227,0.313,37.103c9.444,4.854,13.265,16.382,14.178,21.167
			c1.254,6.576,1.964,20.774-7.799,29.018l-0.7,0.592l-7.029,4.502l-83.21-1.46c-2.73-0.009-14.703-2.12-14.661-15.205
			c0.004-1.222,2.567-120.03,2.567-120.03L662.587,48.752z"/>
	</g>
	<g>
		<path style="fill-rule:evenodd;clip-rule:evenodd;fill:#78B73F;" d="M676.473,48.248c0,0-0.257-1.743,2.444-1.735
			c2.701,0.009,81.195-1.132,81.195-1.132s0.784,0.177,0.776,2.529c-0.008,2.352-1.14,29.354-1.14,29.354s-2.097,1.823-6.191,1.896
			c-4.095,0.074-12.192-1.52-12.192-1.52l-31.708-0.189c0,0-1.046-0.091-1.14,2.087c-0.094,2.178-0.136,15.158-0.136,15.158
			s0.514,2.528,1.906,3.316c2.209,1.252,3.83,1.145,5.745,1.238c1.917,0.093,20.823-0.717,23.263-0.622
			c2.438,0.095,6.794-0.327,7.922,1.245c1.128,1.572-0.368,24.008-1.245,25.748c-0.877,1.74-43.791,0.59-43.791,0.59
			s-2.526-0.096-3.232,2.864c-0.707,2.96-0.647,11.323-0.04,12.458c0.605,1.134,1.907,2.881,3.823,2.887
			c1.916,0.006,30.838,0.099,34.761-0.324c3.92-0.423,7.327-3.026,12.292-3.01c4.965,0.016,8.779,6.214,9.892,12.054
			c1.113,5.84,0.395,12.807-3.101,15.757l-2.705,1.734l-79.096-1.387c0,0-0.871-0.003-0.867-1.223
			C673.912,166.803,676.473,48.248,676.473,48.248z"/>
	</g>
	<g>
		<path style="fill-rule:evenodd;clip-rule:evenodd;fill:#FFFFFF;" d="M486.235,213.51l-0.117,0.89c0,0,4.266-162.578,4.279-166.577
			c0.047-14.545,11.911-17.907,16.424-17.892c0,0,28.234-0.263,33.053,0.154c11.83,1.025,16.04,12.058,16.04,12.058l1.377,3.453
			c0,0,6.002,17.627,14.633,43.099c3.723,10.985,8.765,24.008,13.344,35.341c1.354-4.184,2.714-8.731,3.995-13.565
			c6.672-25.154,13.167-55.193,13.688-59.416c1.769-14.345,13.188-16.38,18.924-15.713l-0.526-0.097c0,0,23.388,2.452,28.008,3.484
			c5.31,1.187,15.85,5.935,14.956,16.565c0.236,3.94,1.103,17.059,3.484,41.812c1.461,15.193,5.37,43.165,8.883,67.685
			c1.775,12.381,3.45,23.891,4.671,32.48c0.619,4.354,1.123,7.966,1.465,10.579c0.541,4.122,0.621,6.687,0.584,7.244
			c-1.231,18.73-13.501,16.76-18.798,15.007c-6.676-0.036-23.962-0.158-28.972-0.461c-12.606-0.761-17.942-8.906-18.174-16.334
			c-2.228,2.452-4.949,4.204-7.846,5.25c-3.011,1.086-5.825,1.243-7.672,1.181c-4.656,0.258-26.119,1.422-30.694,1.162
			c-5.923-0.337-10.187-2.474-13.084-5.31c-1.502,18.265-15.218,17.118-18.845,16.489c-6.311,0.093-31.072,0.44-35.671,0.191
			C487.794,231.412,485.907,219.059,486.235,213.51z"/>
	</g>
	<g>
		<path style="fill-rule:evenodd;clip-rule:evenodd;fill:#78B73F;" d="M500.051,214.765c0,0-0.795,3.308,4.344,3.586
			c5.138,0.278,36.153-0.232,36.153-0.232s3.483,0.534,3.76-4.257c0.278-4.79-1.056-77.535-1.056-77.535
			s12.899,24.956,19.784,51.287l4.041,16.478c0,0,0.08,2.614,4.957,2.891c4.877,0.277,29.971-1.21,29.971-1.21
			s5.398,0.889,6.811-5.292c1.414-6.18,5.272-23.531,6.781-32.237c1.51-8.707,8.68-34.965,8.68-34.965s3.494,24.229,5.421,47.93
			c1.928,23.702,1.729,31.193,1.729,31.193s-1.055,2.958,5.042,3.326c6.096,0.368,30.837,0.448,30.837,0.448
			s2.001,0.791,2.184-1.997c0.184-2.787-12.619-85.065-15.568-115.739c-2.951-30.673-3.605-43.743-3.605-43.743s0.353-1.392-4-2.365
			c-4.353-0.972-26.385-3.221-26.385-3.221s-2.611-0.706-3.147,3.649c-0.537,4.354-7.17,35.345-14.049,61.283
			c-6.878,25.938-16.699,45.769-16.699,45.769s-0.35,0.521-1.735-2.271c-1.385-2.792-16.949-38.908-25.578-64.374
			c-8.63-25.465-14.499-42.733-14.499-42.733l-1.296-3.227c0,0-1.123-2.966-4.259-3.237c-4.621-0.4-31.796-0.102-31.796-0.102
			s-2.527-0.008-2.54,3.999C504.322,51.874,500.051,214.765,500.051,214.765z"/>
	</g>
	<g>
		<polygon style="fill-rule:evenodd;clip-rule:evenodd;fill:#C1D89E;" points="620.495,53.964 645.573,57.529 664.938,211.959
			637.411,211.174 649.288,202.152 635.797,63.422 		"/>
	</g>
	<g>
		<polygon style="fill-rule:evenodd;clip-rule:evenodd;fill:#C1D89E;" points="619.892,132.714 604.153,151.479 592.859,195.698
			580.291,203.324 603.293,202.004 		"/>
	</g>
	<g>
		<path style="fill-rule:evenodd;clip-rule:evenodd;fill:#C1D89E;" d="M509.007,48.378l30.662,0.796
			c0,0,28.289,87.903,42.154,110.946c0,0-9.744-4.213-16.331-14.339c-6.589-10.127-35.604-89.321-35.604-89.321L509.007,48.378z"/>
	</g>
	<g>
		<polygon style="fill-rule:evenodd;clip-rule:evenodd;fill:#C1D89E;" points="538.685,138.027 539.488,213.297 510.913,213.902
			525.927,204.193 528.184,152.978 		"/>
	</g>
	<g>
		<polygon style="fill-rule:evenodd;clip-rule:evenodd;fill:#C1D89E;" points="681.138,50.675 756.404,50.917 754.231,76.348
			748.36,59.951 687.041,57.315 		"/>
	</g>
	<g>
		<polygon style="fill-rule:evenodd;clip-rule:evenodd;fill:#C1D89E;" points="705.194,100.93 743.694,102.274 742.234,122.828
			736.699,110.44 710.746,108.092 		"/>
	</g>
	<g>
		<path style="fill-rule:evenodd;clip-rule:evenodd;fill:#C1D89E;" d="M696.857,147.074l43.03,1.533l13.244-1.003
			c0,0,3.815,5.413,2.403,11.333c-1.414,5.919-4.557,8.349-4.557,8.349l-3.277-10.464l-45.638-3.283L696.857,147.074z"/>
	</g>
	<g>
		<path style="fill:#7A7A7A;" d="M791.49,10.939c-0.011,3.353-0.022,6.707-0.033,10.123c-1.299-0.004-2.503-0.008-3.793-0.012
			c0.016-4.851,0.031-9.65,0.047-14.622c1.934,0.006,3.846-0.02,5.754,0.057c0.255,0.01,0.615,0.508,0.709,0.836
			c0.722,2.52,1.391,5.054,2.294,7.592c0.64-2.303,1.36-4.59,1.887-6.917c0.285-1.255,0.833-1.702,2.199-1.565
			c1.429,0.143,2.884,0.04,4.445,0.045c-0.016,4.897-0.031,9.728-0.047,14.627c-1.235-0.004-2.436-0.008-3.723-0.012
			c0.011-3.419,0.022-6.772,0.033-10.126c-0.076-0.023-0.153-0.046-0.229-0.069c-0.104,0.258-0.232,0.51-0.307,0.775
			c-0.785,2.811-1.597,5.616-2.318,8.441c-0.203,0.797-0.535,1.066-1.404,1.053c-2.447-0.036-2.451,0.003-3.057-2.243
			c-0.724-2.684-1.442-5.37-2.163-8.054C791.686,10.892,791.588,10.916,791.49,10.939z"/>
		<path style="fill:#7A7A7A;" d="M780.611,21.025c-1.728-0.006-3.201-0.01-4.786-0.015c0.012-3.628,0.023-7.189,0.035-10.92
			c-1.651-0.005-3.199-0.01-4.835-0.016c0.004-1.302,0.008-2.435,0.012-3.637c4.812,0.016,9.564,0.031,14.398,0.046
			c-0.004,1.19-0.008,2.324-0.012,3.585c-1.59-0.005-3.105-0.01-4.777-0.015C780.635,13.767,780.623,17.359,780.611,21.025z"/>
	</g>
</g>
<g class="logo-blue-letters logo-animations">
	<g>
		<path style="fill-rule:evenodd;clip-rule:evenodd;fill:#028FDE;" d="M302.088,211.163c-17.232-0.282-37.542-6.749-48.881-17.816
			c-11.398-11.124-17.062-25.418-17.83-48.614c-0.609-18.396,0.919-66.359,4.561-78.267c2.93-9.579,7.481-19.685,17.958-27.056
			c7.657-5.386,18.456-12.069,46.107-13.246c11.614-0.494,23.751-0.489,34.438,2.155c11.816,2.922,23.28,9.456,30.445,22.333
			c6.132,11.021,7.579,26.489,8.146,34.796c0.534,7.838,0.051,31.742-0.172,41.311l-3.514,0.037l-0.223,3.901
			c-0.467,8.167-0.989,16.174-1.468,21.072c-1.204,12.311-4.778,38.108-27.998,49.815
			C329.91,208.514,319.513,211.448,302.088,211.163z"/>
	</g>
	<g>
		<path style="fill-rule:evenodd;clip-rule:evenodd;fill:#028FDE;" d="M276.694,131.916c0.062,8.836,0.807,19.614,0.46,29.486
			c-0.327,9.288-1.52,25.818-11.672,37.757c-15.676,18.435-40.351,21.829-58.762,22.316c-19.717,0.522-38.006-0.56-56.496-19.733
			c-10.205-10.583-14.174-23.461-15.842-31.944c-1.508-7.664-1.535-13.902-1.498-15.925l0.042-67.083
			c-0.011-1.759,0.042-8.108,1.334-15.431c1.223-6.931,4.628-21.765,16.568-31.471c16.854-13.7,39.518-14.1,49.992-13.692
			c1.542,0.122,15.45,1.299,27.979,5.013c21.041,6.238,34.324,14.682,43.075,32.642c3.172,6.511,4.198,13.89,4.688,18.907
			c0.513,5.247,0.7,11.372,0.692,17.754C277.24,111.528,276.635,123.43,276.694,131.916z"/>
	</g>
	<g>
		<g>
			<path style="fill-rule:evenodd;clip-rule:evenodd;fill:#028FDE;" d="M128.439,19.65c7.881,0.025,25.224,5.979,37.02,12.671
				l0.514,0.292l0.575,0.137c12.085,2.894,23.445,14.192,11.494,37.903c-1.875,3.722-26.771,44.006-36.64,59.939l-0.594,0.959
				l-2.144,77.686c0.569,13.666-9.974,27.42-28.786,26.731c-4.325-0.158-50.848-0.319-65.421-0.366l4.098-103.716L10.778,70.932
				c-2.235-2.983-6.507-9.578-6.705-17.34c-0.263-10.297,6.251-18.802,18.955-23.642c5.153-1.962,24.864-9.255,30.779-11.44
				c5.79-2.691,22.793-8.041,35.079,10.52c1.237,1.868,2.98,4.641,5.295,8.715l3.564,6.27l3.67-6.209
				c1.728-2.922,3.048-4.922,4.149-6.385C110.174,25.291,117.552,19.615,128.439,19.65z"/>
		</g>
		<g>
			<path style="fill-rule:evenodd;clip-rule:evenodd;fill:#FFFFFF;" d="M26.502,39.067c5.341-2.034,26.197-9.74,31.165-11.575
				c3.126-1.634,14.385-6.218,23.084,6.922c2.575,3.89,7.386,11.834,15.097,27.566l1.196,2.428c3.27-5.345,6.485-10.686,8.72-14.597
				c1.707-2.987,3.043-5.338,4.135-7.185c1.407-2.38,2.523-4.094,3.463-5.342c3.311-4.403,8.051-7.9,15.046-7.877
				c5.875,0.019,23.213,5.811,34.106,12.502c7.106,0.967,16.3,5.537,6.816,24.353c-1.995,3.959-30.365,49.752-38.202,62.388
				l-2.233,80.733c0.561,8.256-5.48,17.319-18.66,16.837c-5.168-0.189-55.628-0.344-55.628-0.344l3.817-96.587l-39.6-63.916
				C15.237,60.756,6.527,46.676,26.502,39.067z"/>
		</g>
		<g>
			<path style="fill-rule:evenodd;clip-rule:evenodd;fill:#028FDE;" d="M30.226,57.316c0,0-3.299-3.495,1.237-5.223
				c6.05-2.304,32.097-11.918,32.097-11.918s3.141-1.732,5.569,1.934c2.428,3.667,6.933,11.173,14.203,26.006
				c7.27,14.833,12.64,24.432,12.64,24.432s15.236-24.168,21.894-35.82c6.659-11.652,7.535-13.392,10.497-13.382
				c2.962,0.01,21.411,5.993,29.58,12.291c0,0,1.22-0.17-1.06,4.353c-2.279,4.522-39.584,64.511-39.584,64.511l-2.366,85.539
				c0,0,1.037,2.442-4.189,2.251c-5.226-0.191-41.64-0.308-41.64-0.308l3.415-86.407L30.226,57.316z"/>
		</g>
		<g>
			<path style="fill-rule:evenodd;clip-rule:evenodd;fill:#A8CFED;" d="M38.565,55.225l26.51-8.278L92.099,95.47l-6.99,6.598
				c0,0-21.501-32.128-27.045-41.902C49.712,56.654,38.565,55.225,38.565,55.225z"/>
		</g>
		<g>
			<path style="fill-rule:evenodd;clip-rule:evenodd;fill:#A8CFED;" d="M127.794,48.195c0,0,23.671,7.394,24.711,9.14
				c1.04,1.745-41.675,64.679-41.675,64.679l-2.015,84.669l-31.359-0.449c0,0,9.427-5.893,15.716-11.1
				c0.051-15.681,2.672-72.123,5.133-79.084c2.461-6.961,34.648-46.582,32.935-55.647C129.526,51.337,127.794,48.195,127.794,48.195
				z"/>
		</g>
	</g>
	<g>
		<path style="fill-rule:evenodd;clip-rule:evenodd;fill:#FFFFFF;" d="M263.103,68.124c2.366,4.857,3.278,10.764,3.749,15.583
			c0.485,4.962,0.652,10.755,0.645,16.792c-0.014,11.045-0.618,22.978-0.559,31.485c0.061,8.713,0.809,19.341,0.466,29.075
			c-0.33,9.376-1.614,22.677-9.354,31.78c-12.75,14.993-33.51,18.405-51.586,18.883c-18.85,0.499-33.622-0.583-49.216-16.754
			c-8.362-8.671-11.798-19.46-13.292-27.053c-1.39-7.072-1.35-12.706-1.314-14.073l0.042-67.032
			c-0.013-1.373,0.012-7.105,1.185-13.756c1.166-6.608,4.11-18.276,13.114-25.595c13.867-11.271,33.034-11.924,43.222-11.527
			c0,0,13.526,0.987,25.821,4.632C245.505,46.337,255.962,53.467,263.103,68.124z"/>
	</g>
	<g>
		<path style="fill-rule:evenodd;clip-rule:evenodd;fill:#028FDE;" d="M198.417,147.063c0,0-0.903,9.928,3.087,15.168
			c4.714,6.189,9.563,6.129,11.654,6.135c2.09,0.007,6.801-2.068,7.329-3.635c0.528-1.567-0.299-69.519-0.299-69.519
			s-0.16-4.356-6.072-8.034c-5.912-3.678-10.447-2.125-12.016-1.607c-1.57,0.518-3.676,5.215-3.676,5.215L198.417,147.063z
			 M222.064,53.926c17.232,5.108,23.662,10.356,28.508,20.302c4.846,9.947,2.308,40.778,2.426,57.853
			c0.12,17.075,3.003,41.65-5.567,51.728c-8.57,10.078-23.739,13.513-41.337,13.979c-17.599,0.466-27.353-0.611-38.814-12.495
			c-11.46-11.884-10.702-31.222-10.702-31.222l0.043-67.252c0,0-0.456-20.734,9.152-28.544c9.608-7.809,23.898-8.809,33.653-8.429
			C199.427,49.846,211.187,50.702,222.064,53.926z"/>
	</g>
	<g>
		<path style="fill-rule:evenodd;clip-rule:evenodd;fill:#A8CFED;" d="M170.916,75.165c0,0,2.503-20.203,30.026-18.372
			c27.522,1.831,43.523,10.943,45.545,32.205c2.022,21.263,4.012,82.555-5.17,90.582c-8.737,7.639-16.763,11.446-31.746,11.049
			c0,0,20.913-1.675,20.994-26.763c0.11-33.977,5.524-78.562-10.866-88.544C189.791,57.106,170.916,75.165,170.916,75.165z"/>
	</g>
	<g>
		<path style="fill-rule:evenodd;clip-rule:evenodd;fill:#FFFFFF;" d="M364.081,117.139c-0.578,11.402-1.404,26.205-2.136,33.681
			c-1.229,12.551-4.639,32.957-22.681,42.053c-12.469,6.286-21.314,8.792-37.016,8.535c-15.592-0.256-33.198-6.232-42.226-15.044
			c-9.063-8.844-14.18-20.413-14.893-41.954c-0.62-18.71,1.054-65.002,4.14-75.089c2.666-8.719,6.354-16.381,14.241-21.93
			c6.23-4.383,15.244-10.385,40.908-11.478c11.528-0.491,22.453-0.404,31.681,1.878c9.896,2.448,18.73,7.664,24.261,17.606
			c4.93,8.859,6.358,22.202,6.939,30.716c0.651,9.563,0.064,30.991,0.064,30.991L364.081,117.139z"/>
	</g>
	<g>
		<path style="fill-rule:evenodd;clip-rule:evenodd;fill:#028FDE;" d="M316.162,103.711l-0.487-11.152c0,0-1.548-6.277-6.948-6.469
			c-5.4-0.192-11.673-0.038-11.673-0.038s-6.967-0.893-10.468,4.322c-3.501,5.216-2.987,7.831-4.076,21.417
			c-1.09,13.586-0.802,32.578-0.802,32.578s-0.721,7.49,4.663,12.56c5.385,5.071,9.214,6.302,17.925,6.505
			c8.711,0.202,14.644-2.74,16.576-7.439c1.931-4.698,1.595-8.358,1.595-8.358s-21.429-0.243-23.867-0.774
			c-2.438-0.53-4.698-2.106-4.698-2.106l0.625-31.708l55.747,2.097c0,0-0.941,21.427-2.202,34.316
			c-1.261,12.889-4.438,25.597-15.083,30.964c-10.646,5.367-17.272,7.262-30.512,7.045c-13.241-0.217-26.988-5.488-32.72-11.082
			c-5.732-5.594-10.062-13.274-10.698-32.441c-0.635-19.167,1.249-63.067,3.538-70.551c2.29-7.485,4.742-11.658,8.934-14.607
			c4.19-2.948,10.653-7.98,33.48-8.952c22.828-0.972,36.76,0.816,43.169,12.336c6.409,11.519,5.616,41.136,5.616,41.136
			L316.162,103.711z"/>
	</g>
	<g>
		<path style="fill-rule:evenodd;clip-rule:evenodd;fill:#A8CFED;" d="M301.105,117.051l44.595,2.235c0,0,0.917,40.076-6.431,49.112
			c-7.347,9.036-20.601,13.175-20.601,13.175s11.51-3.117,12.991-30.274c0.74-13.587,0.079-24.392-15.596-26.185
			C307.575,124.143,301.105,117.051,301.105,117.051z"/>
	</g>
	<g>
		<path style="fill-rule:evenodd;clip-rule:evenodd;fill:#A8CFED;" d="M272.349,65.387c0,0,5.603-8.694,29.999-9.66
			c24.395-0.967,35.886,1.858,39.698,8.491c3.811,6.633,4.076,32.42,4.076,32.42l-19.519,1.68c0,0,1.232-2.095,0.753-17.42
			c-0.316-10.107-7.609-17.796-30.26-17.521C274.446,63.651,272.349,65.387,272.349,65.387z"/>
	</g>
</g>
<g class="logo-pink-letters logo-animations">
	<g>
		<path style="fill:#BC0B79;" d="M522.431,196.768c-0.133,26.558-25.099,36.868-35.202,40.129
			c-14.075,4.542-31.496,6.307-48.751,6.251c-35.067-0.113-106.509-15.418-121.365-90.962c-1.022-5.198-1.54-10.087-1.785-14.714
			c-0.211-3.983-0.211-7.738-0.199-11.301c0.206-63.938,56.723-103.971,116.604-103.778
			c59.953,0.193,117.432,41.897,117.226,105.774C548.874,154.521,538.717,178.359,522.431,196.768z"/>
	</g>
	<g>
		<path style="fill:#FFFFFF;" d="M482.949,223.631c-12.136,3.916-27.935,5.631-44.426,5.578
			c-33.302-0.107-94.911-14.509-107.733-79.713c-0.886-4.507-1.33-8.749-1.542-12.761c-0.196-3.708-0.191-7.203-0.18-10.52
			c0.174-54.067,48.068-90.06,102.621-89.884c54.586,0.176,103.507,37.752,103.333,91.791
			c-0.079,24.486-10.237,46.589-26.517,63.149l-0.505,0.515l0.128,0.71c0.242,1.344,0.37,2.736,0.366,4.17
			C508.441,212.732,493.313,220.286,482.949,223.631z"/>
	</g>
	<g>
		<g>
			<path d="M430.81,49.184c-49.363-0.159-90.076,32.032-90.224,77.88c-0.01,3.06-0.019,6.284,0.161,9.704
				c0.185,3.48,0.565,7.16,1.333,11.07c11.083,56.36,64.311,69.714,95.448,69.814c29.519,0.095,58.37-5.99,58.422-22.03
				c0.008-2.623-0.793-5.089-2.185-7.345c17.161-14.902,27.947-35.976,28.022-59.419C521.936,83.016,480.178,49.343,430.81,49.184z"
				/>
		</g>
		<g>
			<path style="fill:#FFFFFF;" d="M519.269,128.85c0.142-44.082-40.09-76.992-88.468-77.148
				c-48.378-0.156-87.555,31.287-87.697,75.369c-0.019,6.03-0.041,12.709,1.447,20.279c10.719,54.506,62.191,67.682,92.985,67.782
				s55.853-6.507,55.894-19.519c0.009-2.716-1.07-5.329-3.063-7.763C508.053,173.307,519.194,152.276,519.269,128.85z"/>
		</g>
		<g>
			<path style="fill:#C7CAE5;" d="M411.493,200.635c-1.562,4.639,16.495,13.961,38.895,14.127c-2.702,0.171-5.478,0.283-8.314,0.336
				c-7.535,0.042-19.141-0.461-31.369-3.12c-8.926-2.078-18.131-5.318-26.775-10.103c-1.889-1.13-3.724-2.354-5.489-3.68
				c-13.326-10.015-21.285-19.285-26.295-28.565c-2.515-4.906-4.613-10.305-6.198-16.241c-0.896-3.547-1.578-7.157-2.17-10.867
				c-0.705-5.623-0.688-10.736-0.673-15.45c0.142-44.082,39.319-75.525,87.697-75.369c3.148,0.01,7.854,0.366,10.924,0.648
				l-1.361,0.19c0,0-42.095-1.927-65.053,30.906c-19.538,27.941-9.272,41.004-5.973,43.153c3.39,2.209,8.725,8.196,24.925-10.032
				c16.829-18.935,61.695-14.97,74.317-9.095c0,0-65.347,1.734-70.477,24.276c-5.129,22.543-5.191,41.989,10.73,49.819
				c15.922,7.831,37.686,12.957,66.475,10.327c0,0-14.419,8.899-33.474,8.06C422.778,199.116,413.064,195.973,411.493,200.635z"/>
		</g>
		<g>
			<g>
				<g>

						<ellipse transform="matrix(0.194 -0.981 0.981 0.194 217.6484 448.5364)" style="fill:#3A6693;" cx="381.796" cy="91.811" rx="15.311" ry="15.311"/>
					<path style="fill:#3A6693;" d="M381.797,91.811"/>
				</g>
			</g>
			<g>
				<path style="fill:#DD6618;" d="M396.462,103.712c-1.85,2.437-10.2-0.784-18.652-7.196c-8.452-6.411-13.805-13.586-11.956-16.023
					c0.818-1.077,2.903-1.05,5.707-0.129l-0.624,0.663c-1.387-0.423-2.354-0.433-2.725,0.057
					c-1.156,1.524,3.895,7.303,11.282,12.906c7.388,5.605,14.312,8.912,15.469,7.387c0.233-0.306,0.214-0.785-0.024-1.399
					c0.222-0.315,0.432-0.64,0.63-0.975C396.806,101.079,397.185,102.758,396.462,103.712z"/>
			</g>
			<g>
				<path style="fill:#EEC830;" d="M361.659,111.866c-1.68-2.328,1.346-7.593,7.21-13.412c0.243,0.411,0.505,0.81,0.785,1.196
					c-4.429,4.248-6.823,7.75-5.869,9.072c1.532,2.124,11.118-2.175,21.411-9.602c10.293-7.427,17.394-15.171,15.861-17.294
					c-0.674-0.934-2.905-0.626-6.069,0.644c-0.215-0.339-0.444-0.669-0.685-0.99c4.97-1.88,8.723-2.159,10.001-0.387
					c2.45,3.396-5.109,13.038-16.886,21.536C375.642,111.127,364.109,115.262,361.659,111.866z"/>
			</g>
		</g>
		<g>
			<g>
				<defs>
					<path id="SVGID_1_" d="M423.289,51.836c4.407,0.434,52.055,30.774,37.757,92.927l9.152,0.772
						c14.655-63.709-33.392-94.075-36.831-94.086L423.289,51.836z"/>
				</defs>
				<use xlink:href="#SVGID_1_"  style="overflow:visible;fill:#D80100;"/>
				<clipPath id="SVGID_2_">
					<use xlink:href="#SVGID_1_"  style="overflow:visible;"/>
				</clipPath>
			</g>
		</g>
		<g>
			<g>
				<g>
					<g>
						<ellipse transform="matrix(0.8845 -0.4666 0.4666 0.8845 -15.5017 179.3743)" cx="354.447" cy="120.989" rx="7" ry="7.001"/>
						<path d="M354.447,120.989"/>
					</g>
				</g>
				<g>
					<polygon style="fill-rule:evenodd;clip-rule:evenodd;" points="353.83,123.298 357.615,121.302 372.938,145.76
						365.369,149.753 					"/>
				</g>
				<g>
					<g>

							<ellipse transform="matrix(0.8844 -0.4666 0.4666 0.8844 -14.5766 179.5984)" style="fill:#666666;" cx="355.35" cy="119.232" rx="3.294" ry="3.295"/>
						<path style="fill:#666666;" d="M355.35,119.232"/>
					</g>
				</g>
			</g>
			<g>
				<path style="fill-rule:evenodd;clip-rule:evenodd;fill:#3A6693;" d="M380.107,157.632c-1.121-9.376-8.303-15.922-12.492-15.269
					c-7.677,1.197-13.063,9.271-11.942,18.647c1.121,9.375,8.259,15.979,16.001,15.306
					C376.349,175.91,381.228,167.008,380.107,157.632z"/>
			</g>
			<g>
				<path style="fill:#2B4B75;" d="M357.153,151.949c0,0,4.57,20.215,7.841,13.165c3.27-7.05,4.622-7.211,4.622-7.211l1.672,7.439
					l7.353,0.884c0,0-0.121,3.11-1.501,5.798c-0.689,1.103-1.456,2.035-2.264,2.747c-0.705,0.505-1.541,0.871-2.534,1.021
					c-2.43,0.371-4.606,0.157-6.476-0.341c-5.232-2.073-9.363-7.496-10.192-14.44c-0.22-1.841-0.189-3.633,0.06-5.331
					L357.153,151.949z"/>
			</g>
			<g>
				<g>

						<ellipse transform="matrix(0.9929 -0.1186 0.1186 0.9929 -16.5261 44.1575)" style="fill:#1F3664;" cx="362.787" cy="160.946" rx="4.993" ry="9.985"/>
					<path style="fill:#1F3664;" d="M362.787,160.946"/>
				</g>
			</g>
			<g>
				<path d="M367.358,140.704c-8.788,1.37-13.836,10.535-12.635,20.574c1.199,10.034,8.227,17.483,17.097,16.712
					c6.278-0.545,11.091-11.06,9.956-20.557C380.62,147.767,373.028,139.82,367.358,140.704z M367.875,144.023
					c2.707-0.422,9.48,4.723,10.566,13.809c1.105,9.255-3.838,16.545-6.911,16.811c-6.613,0.575-13.851-3.675-15.464-13.631
					C354.435,150.954,361.306,145.047,367.875,144.023z"/>
			</g>
		</g>
		<g>
			<path d="M519.269,128.85c0.142-44.082-37.136-77.342-85.514-77.498c-48.378-0.156-88.39,31.088-88.532,75.17
				c-0.019,6.03-0.041,12.71,1.448,20.279c10.719,54.505,60.072,68.232,90.866,68.331s55.853-6.507,55.894-19.519
				c0.009-2.716-1.07-5.329-3.063-7.763C508.053,173.307,519.194,152.276,519.269,128.85z M430.81,49.184
				c49.368,0.159,91.126,33.832,90.979,79.675c-0.076,23.443-10.861,44.518-28.022,59.419c1.392,2.256,2.193,4.722,2.185,7.345
				c-0.052,16.04-28.903,22.125-58.422,22.03c-31.137-0.1-84.365-13.454-95.448-69.814c-0.769-3.91-1.149-7.59-1.333-11.07
				c-0.18-3.42-0.171-6.644-0.161-9.704C340.734,81.216,381.447,49.025,430.81,49.184z"/>
		</g>
		<g>
			<path style="fill:#272425;" d="M493.25,188.588c-3.22,3.344-9.536,4.599-9.484,3.529c0.051-0.389,2.145-1.403,2.145-1.403
				c3.291-1.632,4.594-3.059,7.503-5.227L493.25,188.588z"/>
		</g>
		<g>
			<g>
				<path style="fill-rule:evenodd;clip-rule:evenodd;fill:#3A6666;" d="M511.391,140.956c-0.213-9.777-4.375-24.493-30.339-30.862
					c-42.103-10.328-102.053,1.527-90.723,48.336c3.427,14.157,10.193,23.644,19.479,29.724c11.561,7.57,33.048,8.255,50.742,6.56
					c18.379-1.76,22.656-4.393,27.14-7.705C504.95,174.743,511.682,154.411,511.391,140.956z"/>
			</g>
			<g>
				<path style="fill:#31575A;" d="M423.143,111.561c0,0-26.078,29.688-4.55,29.758c21.529,0.069,31.145,10.686,50.444,11.41
					c14.531,0.545,33.713-5.646,42.304-8.739c-0.164,3.166-0.682,6.613-1.59,10.181c-4.016,6.268-9.853,12.868-17.007,13.851
					c-14.112,1.94-30.432-1.421-49.733-1.483c-19.302-0.062-30.477,12.473-7.483,18.501c21.568,5.655,35.316,6.046,32.639,8.788
					c-2.233,0.316-4.753,0.612-7.616,0.886c-17.695,1.695-39.181,1.01-50.742-6.56c-9.286-6.08-16.053-15.567-19.479-29.724
					c-6.246-25.809,9.176-40.992,31.33-47.689L423.143,111.561z"/>
			</g>
			<g>
				<path style="fill-rule:evenodd;clip-rule:evenodd;fill:#B8CDCD;" d="M428.711,111.579c10.773-2.612,33.05-4.525,56.041,2.497
					c21.077,6.436,23.324,18.6,23.289,29.517c-0.035,10.917-9.004,29.743-17.193,36.664c-8.189,6.92-13.391,8.888-23.419,10.51
					c0,0,8.359-2.664,15.269-15.499c7.469-13.87,7.185-40.996,4.609-47.952c-2.575-6.955-12.215-10.625-12.215-10.625
					s-14.463-4.017-20.03-4.365C449.496,111.977,428.711,111.579,428.711,111.579z"/>
			</g>
		</g>
	</g>
</g>
<g class="logo-fun-letters logo-animations">
	<g>
		<path class="logo-f-letter fun-animation animation-delay-1" style="fill:#BC0B79;" d="M408.353,322.104c-0.008,2.353-1.031,3.604-2.835,3.599c-1.804-0.006-2.819-1.264-2.811-3.617
			l0.109-33.877l-3.686-0.012c-1.883-0.006-2.427-1.42-2.424-2.361c0.003-0.941,0.556-2.351,2.439-2.345l3.686,0.012l0.035-10.744
			c0.018-5.646,3.32-8.067,7.476-8.053l2.901,0.009c2.666,0.009,3.839,1.189,3.835,2.601c-0.005,1.411-0.714,2.586-2.989,2.578
			l-2.588-0.008c-1.803-0.006-2.984,1.166-2.988,2.578l-0.036,11.057l5.019,0.016c1.882,0.006,2.427,1.42,2.424,2.36
			c-0.003,0.941-0.557,2.351-2.439,2.345l-5.019-0.016L408.353,322.104z"/>
		<path class="logo-n-letter fun-animation" style="fill:#BC0B79;" d="M467.875,322.296c-0.008,2.353-1.031,3.604-2.835,3.599c-1.803-0.006-2.819-1.264-2.811-3.617
			l0.114-35.446c0.008-2.352,1.032-3.604,2.835-3.599c1.804,0.006,2.819,1.264,2.811,3.617l-0.007,2.038l0.157,0.001
			c2.127-3.052,5.586-5.628,10.919-5.611c7.371,0.024,14.962,4.989,14.93,14.948l-0.078,24.153
			c-0.008,2.353-1.031,3.604-2.835,3.599c-1.804-0.006-2.819-1.264-2.811-3.617l0.078-24.31c0.019-5.803-3.89-9.58-10.164-9.6
			c-5.254-0.017-10.207,3.731-10.23,10.868L467.875,322.296z"/>
		<path class="logo-l-letter fun-animation" style="fill:#BC0B79;" d="M528.731,322.492c-0.008,2.353-1.031,3.604-2.835,3.599c-1.803-0.006-2.819-1.264-2.811-3.617
			l0.173-53.796c0.008-2.352,1.031-3.604,2.835-3.599c1.804,0.006,2.819,1.264,2.811,3.617L528.731,322.492z"/>
		<path class="logo-e-letter fun-animation" style="fill:#BC0B79;" d="M543.131,307.325c0.212,7.294,5.13,14.132,12.345,14.155c8.94,0.029,11.313-6.394,13.98-6.385
			c1.568,0.005,2.665,0.557,2.658,2.753c-0.008,2.51-6.536,8.37-16.26,8.339c-13.332-0.043-18.864-10.883-18.83-21.391
			c0.034-10.508,6.264-21.311,18.027-21.273c11.763,0.038,17.769,9.939,17.735,20.447c-0.005,1.49-0.482,3.449-3.853,3.438
			L543.131,307.325z M566.673,302.696c-0.213-6.98-4.11-14.443-11.716-14.467c-7.607-0.025-11.552,7.413-11.81,14.392
			L566.673,302.696z"/>
		<path class="logo-a-letter fun-animation" style="fill:#BC0B79;" d="M607.502,287.3c0.008-2.352,1.031-3.604,2.835-3.599c1.804,0.006,2.819,1.264,2.811,3.617
			l-0.114,35.446c-0.008,2.353-1.031,3.604-2.835,3.599c-1.804-0.006-2.819-1.264-2.811-3.617l0.008-2.588l-0.235-0.001
			c-2.523,4.07-6.686,6.174-11.548,6.158c-11.998-0.039-17.928-9.625-17.89-21.388c0.034-10.508,5.794-21.312,17.87-21.273
			c4.862,0.016,8.463,2.066,11.665,6.233l0.235,0.001L607.502,287.3z M595.629,321.61c8.783,0.028,11.792-8.98,11.817-16.587
			c0.025-7.607-2.927-16.635-11.709-16.663c-8.548-0.028-11.871,8.98-11.895,16.587C583.816,312.554,586.846,321.581,595.629,321.61
			z"/>
		<path class="logo-r-letter fun-animation" style="fill:#BC0B79;" d="M629.034,322.815c-0.008,2.353-1.031,3.604-2.835,3.599c-1.803-0.006-2.819-1.264-2.811-3.617
			l0.114-35.446c0.008-2.352,1.031-3.604,2.835-3.599c1.804,0.006,2.819,1.264,2.811,3.617l-0.013,3.921l0.157,0.001
			c2.053-4.62,5.67-7.51,9.199-7.499c2.666,0.009,3.759,1.503,3.754,3.071c-0.005,1.569-1.106,2.428-3.852,3.046
			c-3.139,0.696-9.265,3.343-9.295,12.596L629.034,322.815z"/>
		<path class="logo-n2-letter fun-animation" style="fill:#BC0B79;" d="M653.736,322.895c-0.008,2.353-1.031,3.604-2.835,3.599c-1.803-0.006-2.819-1.264-2.811-3.617
			l0.114-35.446c0.008-2.352,1.031-3.604,2.835-3.599c1.804,0.006,2.819,1.264,2.811,3.617l-0.007,2.038l0.157,0.001
			c2.127-3.052,5.586-5.628,10.919-5.611c7.371,0.024,14.962,4.989,14.93,14.948l-0.078,24.153
			c-0.008,2.353-1.031,3.604-2.835,3.599c-1.804-0.006-2.819-1.264-2.811-3.617l0.078-24.31c0.019-5.803-3.89-9.58-10.164-9.6
			c-5.254-0.017-10.207,3.731-10.23,10.868L653.736,322.895z"/>
		<path class="logo-i-letter fun-animation" style="fill:#BC0B79;" d="M693.119,269.852c2.118,0.007,3.837,1.738,3.831,3.855c-0.007,2.118-1.738,3.837-3.855,3.831
			c-2.117-0.007-3.837-1.738-3.83-3.855C689.271,271.565,691.002,269.846,693.119,269.852z M695.771,323.03
			c-0.008,2.353-1.031,3.604-2.835,3.599c-1.803-0.006-2.819-1.264-2.811-3.617l0.114-35.446c0.008-2.352,1.032-3.604,2.835-3.599
			c1.804,0.006,2.819,1.264,2.811,3.617L695.771,323.03z"/>
		<path class="logo-n3-letter fun-animation" style="fill:#BC0B79;" d="M711.768,323.082c-0.008,2.353-1.031,3.604-2.835,3.599c-1.803-0.006-2.819-1.264-2.811-3.617
			l0.114-35.446c0.008-2.352,1.031-3.604,2.835-3.599c1.804,0.006,2.819,1.264,2.811,3.617l-0.007,2.038l0.157,0
			c2.127-3.052,5.586-5.628,10.919-5.611c7.371,0.024,14.962,4.989,14.93,14.948l-0.078,24.153
			c-0.008,2.353-1.031,3.604-2.835,3.599c-1.804-0.006-2.819-1.264-2.811-3.617l0.078-24.31c0.019-5.803-3.89-9.58-10.164-9.6
			c-5.254-0.017-10.207,3.731-10.23,10.868L711.768,323.082z"/>
		<path class="logo-g-letter fun-animation" style="fill:#BC0B79;" d="M775.875,287.842c0.008-2.352,1.031-3.604,2.835-3.599c1.804,0.006,2.819,1.264,2.811,3.617
			l-0.118,36.622c-0.042,12.94-9.079,18.87-18.255,18.84c-8.313-0.027-15.982-4.756-15.973-7.58
			c0.005-1.647,0.872-2.899,2.832-2.893c2.274,0.007,6.021,5.274,12.609,5.295c6.665,0.021,13.109-3.8,13.139-13.211l0.014-4.392
			l-0.157,0c-2.445,4.227-6.608,6.331-11.627,6.315c-11.998-0.039-17.928-9.625-17.89-21.388
			c0.034-10.508,5.794-21.312,17.87-21.273c4.941,0.016,9.402,2.775,11.744,6.155l0.157,0.001L775.875,287.842z M764.001,322.152
			c7.607,0.025,11.863-6.784,11.882-12.587l0.026-7.999c0.019-5.882-4.194-12.639-11.8-12.664
			c-8.783-0.028-11.871,8.98-11.895,16.587C752.189,313.096,755.218,322.124,764.001,322.152z"/>
	</g>

		<ellipse  class="logo-u-letter fun-animation" transform="matrix(0.0032 -1 1 0.0032 136.4129 715.8715)" style="fill:#BC0B79;" cx="427.298" cy="289.509" rx="3.766" ry="3.766"/>

		<ellipse class="logo-u-letter fun-animation"  transform="matrix(0.0032 -1 1 0.0032 152.4825 732.0972)" style="fill:#BC0B79;" cx="443.471" cy="289.561" rx="3.766" ry="3.766"/>
	<g>
		<path class="logo-u-letter fun-animation"  style="fill:#BC0B79;" d="M435.967,319.044c-0.02,0-0.04,0-0.06,0c-4.793-0.015-9.294-1.897-12.672-5.297
			c-3.379-3.4-5.231-7.912-5.215-12.706c0.005-1.526,1.244-2.76,2.769-2.76c0.003,0,0.006,0,0.009,0
			c1.529,0.005,2.764,1.248,2.76,2.778c-0.011,3.313,1.27,6.434,3.606,8.785c2.335,2.352,5.447,3.652,8.762,3.663
			c0.013,0,0.027,0,0.041,0c3.299,0,6.402-1.279,8.744-3.606c2.352-2.335,3.652-5.447,3.663-8.762
			c0.005-1.526,1.244-2.76,2.769-2.76c0.003,0,0.006,0,0.009,0c1.529,0.005,2.764,1.248,2.76,2.778
			c-0.015,4.793-1.897,9.294-5.297,12.672C445.226,317.193,440.737,319.044,435.967,319.044z"/>
	</g>
</g>
</svg>
